solid ASCII
  facet normal -6.993531e-18 -1.000000e+00 -1.987681e-32
    outer loop
      vertex   -1.270000e+02 -1.250000e+01 0.000000e+00
      vertex   1.270000e+02 -1.250000e+01 0.000000e+00
      vertex   -1.270000e+02 -1.250000e+01 1.000000e+01
    endloop
  endfacet
  facet normal -6.993531e-18 -1.000000e+00 0.000000e+00
    outer loop
      vertex   -1.270000e+02 -1.250000e+01 1.000000e+01
      vertex   1.270000e+02 -1.250000e+01 0.000000e+00
      vertex   1.270000e+02 -1.250000e+01 1.000000e+01
    endloop
  endfacet
  facet normal -1.000000e+00 5.684342e-16 0.000000e+00
    outer loop
      vertex   -1.270000e+02 1.250000e+01 0.000000e+00
      vertex   -1.270000e+02 -1.250000e+01 0.000000e+00
      vertex   -1.270000e+02 1.250000e+01 1.000000e+01
    endloop
  endfacet
  facet normal -1.000000e+00 1.705303e-15 -2.842171e-15
    outer loop
      vertex   -1.270000e+02 1.250000e+01 1.000000e+01
      vertex   -1.270000e+02 -1.250000e+01 0.000000e+00
      vertex   -1.270000e+02 -1.250000e+01 1.000000e+01
    endloop
  endfacet
  facet normal 0.000000e+00 1.000000e+00 -0.000000e+00
    outer loop
      vertex   1.270000e+02 1.250000e+01 0.000000e+00
      vertex   -1.270000e+02 1.250000e+01 0.000000e+00
      vertex   1.270000e+02 1.250000e+01 1.000000e+01
    endloop
  endfacet
  facet normal 0.000000e+00 1.000000e+00 0.000000e+00
    outer loop
      vertex   1.270000e+02 1.250000e+01 1.000000e+01
      vertex   -1.270000e+02 1.250000e+01 0.000000e+00
      vertex   -1.270000e+02 1.250000e+01 1.000000e+01
    endloop
  endfacet
  facet normal 1.000000e+00 0.000000e+00 0.000000e+00
    outer loop
      vertex   1.270000e+02 -1.250000e+01 0.000000e+00
      vertex   1.270000e+02 1.250000e+01 0.000000e+00
      vertex   1.270000e+02 -1.250000e+01 1.000000e+01
    endloop
  endfacet
  facet normal 1.000000e+00 -0.000000e+00 0.000000e+00
    outer loop
      vertex   1.270000e+02 -1.250000e+01 1.000000e+01
      vertex   1.270000e+02 1.250000e+01 0.000000e+00
      vertex   1.270000e+02 1.250000e+01 1.000000e+01
    endloop
  endfacet
  facet normal 0.000000e+00 0.000000e+00 1.000000e+00
    outer loop
      vertex   1.270000e+02 1.250000e+01 1.000000e+01
      vertex   -1.270000e+02 1.250000e+01 1.000000e+01
      vertex   1.270000e+02 -1.250000e+01 1.000000e+01
    endloop
  endfacet
  facet normal 0.000000e+00 0.000000e+00 1.000000e+00
    outer loop
      vertex   1.270000e+02 -1.250000e+01 1.000000e+01
      vertex   -1.270000e+02 1.250000e+01 1.000000e+01
      vertex   -1.270000e+02 -1.250000e+01 1.000000e+01
    endloop
  endfacet
  facet normal 0.000000e+00 0.000000e+00 -1.000000e+00
    outer loop
      vertex   1.270000e+02 -1.250000e+01 0.000000e+00
      vertex   -1.270000e+02 -1.250000e+01 0.000000e+00
      vertex   1.270000e+02 1.250000e+01 0.000000e+00
    endloop
  endfacet
  facet normal -0.000000e+00 0.000000e+00 -1.000000e+00
    outer loop
      vertex   1.270000e+02 1.250000e+01 0.000000e+00
      vertex   -1.270000e+02 -1.250000e+01 0.000000e+00
      vertex   -1.270000e+02 1.250000e+01 0.000000e+00
    endloop
  endfacet
endsolid
